<svg xmlns="http://www.w3.org/2000/svg" xmlns:xlink="http://www.w3.org/1999/xlink" width="116" height="116" viewBox="0 0 116 116">
  <defs>
    <filter id="Ellipse_2" x="0" y="0" width="116" height="116" filterUnits="userSpaceOnUse">
      <feOffset dy="3" input="SourceAlpha"/>
      <feGaussianBlur stdDeviation="3" result="blur"/>
      <feFlood flood-opacity="0.161"/>
      <feComposite operator="in" in2="blur"/>
      <feComposite in="SourceGraphic"/>
    </filter>
  </defs>
  <g id="Group_2" data-name="Group 2" transform="translate(-801 -922)">
    <g transform="matrix(1, 0, 0, 1, 801, 922)" filter="url(#Ellipse_2)">
      <circle id="Ellipse_2-2" data-name="Ellipse 2" cx="49" cy="49" r="49" transform="translate(9 6)" fill="#7b7b7b"/>
    </g>
    <g id="Icons" transform="translate(829.214 937.813)">
      <g id="Rounded" transform="translate(9.867 -2)">
        <g id="Navigation">
          <g id="_-Round-_-Navigation-_-arrow_back_ios" data-name="-Round-/-Navigation-/-arrow_back_ios">
            <g id="Group_1" data-name="Group 1">
              <path id="Path" d="M0,0H34.706V82.375H0Z" fill="none" fill-rule="evenodd" opacity="0.87"/>
              <path id="_-Icon-Color" data-name="🔹-Icon-Color" d="M41.849,3.884a4.288,4.288,0,0,0-6.075,0L7.251,32.406a3.418,3.418,0,0,0,0,4.84L35.774,65.768a4.3,4.3,0,0,0,6.075-6.075L17,34.809,41.883,9.925A4.278,4.278,0,0,0,41.849,3.884Z" transform="translate(-7.328 6.379)" fill="#1d1d1d" fill-rule="evenodd"/>
            </g>
          </g>
        </g>
      </g>
    </g>
  </g>
</svg>
